<svg xmlns="http://www.w3.org/2000/svg" width="123" height="27" viewBox="0 0 123 27">
    <g fill="none" fill-rule="evenodd">
        <g fill="#FFF">
            <g>
                <text font-family="OpenSans-SemiBold, Open Sans" font-size="20" font-weight="500" transform="translate(-60 -27) translate(60 27)">
                    <tspan x="26" y="21">Co-Owner</tspan>
                </text>
                <path fill-rule="nonzero" d="M20 9.087V4.9c0-.507-.413-.9-.9-.9h-5.02c-.49 0-.9.395-.9.9v.355H8.35C7.455 4.444 6.305 4 5.087 4H.9c-.49 0-.9.395-.9.9v5.02c0 .508.413.9.9.9h.355v4.829C.444 16.546 0 17.695 0 18.913V23.1c0 .507.413.9.9.9h5.02c.238 0 .47-.096.636-.263.17-.17.264-.396.264-.637v-.355h4.829c.897.811 2.046 1.255 3.264 1.255H19.1c.489 0 .9-.395.9-.9v-5.02c0-.507-.413-.9-.9-.9h-.355V12.35C19.556 11.454 20 10.305 20 9.087zm-18.828.561V5.172h3.915c.985 0 1.912.382 2.61 1.078.107.11.255.177.42.177h5.063v2.594H8.117c-.196 0-.379.098-.487.26l-.56.84c-.214.321-.523.558-.877.683v-.57c0-.323-.263-.586-.586-.586H1.172zm5.062 8.16c-.323 0-.586.262-.586.585v4.435H1.172v-3.915c0-.988.385-1.917 1.083-2.616.11-.11.172-.259.172-.414V10.82h2.594v5.063c0 .196.098.379.26.487l.84.56c.321.214.558.523.683.877h-.57zm.536-1.854l-.577-.385v-3.553c.75-.152 1.418-.594 1.853-1.246l.385-.577h3.553c.152.75.594 1.418 1.246 1.853l.577.385v3.553c-.75.152-1.418.594-1.853 1.246l-.385.577H8.016c-.152-.75-.594-1.418-1.246-1.853zm12.058 2.398v4.476h-3.915c-.988 0-1.917-.385-2.616-1.083-.11-.11-.259-.172-.414-.172H6.82v-2.594h5.063c.196 0 .379-.098.487-.26l.56-.84c.214-.321.523-.558.877-.683v.57c0 .323.263.586.586.586h4.435zm-1.083-6.65c-.11.11-.172.26-.172.415v5.063h-2.594v-5.063c0-.196-.098-.379-.26-.487l-.84-.56c-.321-.214-.558-.523-.683-.877h.57c.323 0 .586-.263.586-.586V5.172h4.476v3.915c0 .988-.385 1.917-1.083 2.616z" transform="translate(-60 -27) translate(60 27)"/>
            </g>
        </g>
    </g>
</svg>
