<svg xmlns="http://www.w3.org/2000/svg" width="20" height="20" viewBox="0 0 20 20">
    <g fill="none" fill-rule="evenodd">
        <g fill="#FE7400" fill-rule="nonzero">
            <g>
                <g>
                    <path d="M10 0C4.477 0 0 4.477 0 10c0 5.522 4.477 10 10 10 5.522 0 10-4.478 10-10 0-5.523-4.478-10-10-10zm4.8 8.907l-6.571 6.57-.007.007-.04.04-.002-.002c-.37.345-.851.517-1.348.517-.593 0-1.209-.242-1.685-.718-.423-.423-.677-.969-.714-1.538-.037-.563.14-1.083.499-1.476l-.004-.003 6.494-6.494c.549-.549 1.48-.509 2.079.09.28.28.448.643.474 1.022.026.4-.114.785-.386 1.055l-5.286 5.287-.734-.733 5.287-5.287c.078-.078.088-.18.083-.253-.008-.126-.071-.257-.172-.358-.19-.19-.47-.23-.611-.09l-6.43 6.43c-.186.186-.278.45-.258.741.02.318.168.629.413.874.487.487 1.21.558 1.612.158l6.574-6.573c.306-.306.457-.737.426-1.212-.033-.502-.263-.989-.646-1.372-.773-.773-1.932-.872-2.584-.22l-5.439 5.438-.733-.733 5.438-5.439c1.056-1.056 2.874-.957 4.051.22.562.561.898 1.284.948 2.037.052.778-.207 1.493-.728 2.015z" transform="translate(-1028 -966) translate(603 926) translate(425 40)"/>
                </g>
            </g>
        </g>
    </g>
</svg>
