<svg xmlns="http://www.w3.org/2000/svg" width="16" height="16" viewBox="0 0 16 16">
    <g fill="none" fill-rule="evenodd">
        <g fill="#8F9296" fill-rule="nonzero">
            <g>
                <g>
                    <g>
                        <g>
                            <path d="M13.39 3.03c.707 0 1.277.571 1.277 1.273v6.667H15c.512 0 .935.387.993.884l.007.116c0 .46-.313.85-.738.965l-.86 3.01c-.285.996-1.207 1.692-2.244 1.692l.047-.002.427.853c.07.141.031.309-.085.406l-.064.042c-.049.023-.1.034-.15.034-.122 0-.239-.067-.298-.184l-.575-1.15H4.539l-.574 1.15c-.047.094-.132.155-.226.176l-.072.008c-.05 0-.101-.011-.15-.035-.164-.083-.231-.283-.149-.447l.425-.852c-1.017-.021-1.914-.71-2.194-1.692l-.86-3.008C.314 12.82 0 12.43 0 11.97c0-.551.449-1 1-1h12.999L14 4.304c0-.302-.22-.552-.508-.599l-.099-.008c-.166 0-.318.063-.432.178l-.823.822.099.098c.063.063.097.148.098.236l-.007.065-.333 1.667c-.024.121-.114.22-.233.254-.032.009-.064.013-.095.013-.089 0-.176-.035-.239-.101l-2-2.06c-.087-.089-.117-.219-.077-.337.039-.118.14-.204.262-.224l1.667-.273c.107-.019.213.017.29.093l.097.098.822-.823c.207-.206.471-.333.757-.365zm1.169 9.94H1.441l.798 2.792c.19.664.777 1.141 1.456 1.202l.147.006h8.317c.74 0 1.399-.497 1.602-1.208l.798-2.792zm-11.882.68c.178-.05.362.053.412.23l.432 1.516c.042.142.173.242.321.242.184 0 .333.149.333.333 0 .184-.149.333-.333.333-.444 0-.84-.298-.961-.726l-.433-1.516c-.05-.177.052-.361.229-.412zM15 11.637H1c-.183 0-.333.15-.333.333 0 .184.15.334.333.334h14c.183 0 .333-.15.333-.334 0-.184-.15-.333-.333-.333zM8.764 8.402c.13-.13.341-.13.471 0 .13.13.13.341 0 .471l-.666.667c-.065.064-.15.097-.236.097-.085 0-.17-.033-.236-.097-.13-.13-.13-.342 0-.472zM7.431 7.068c.13-.13.341-.13.471 0 .13.13.13.342 0 .472l-.667.666c-.064.065-.15.098-.235.098-.085 0-.17-.033-.236-.098-.13-.13-.13-.341 0-.471zm2-.666c.13-.13.341-.13.471 0 .13.13.13.341 0 .471l-.667.667c-.064.064-.15.097-.235.097-.085 0-.17-.033-.236-.097-.13-.13-.13-.342 0-.472zm1.788-1.682l-.869.142 1.114 1.148.174-.87-.42-.42z" transform="translate(-120 -1528) translate(0 1012) translate(60 147) translate(10 366) translate(50)"/>
                        </g>
                    </g>
                </g>
            </g>
        </g>
    </g>
</svg>
