<svg xmlns="http://www.w3.org/2000/svg" width="20" height="16" viewBox="0 0 20 16">
    <g fill="none" fill-rule="evenodd">
        <g fill="#8F9296" fill-rule="nonzero">
            <g>
                <g>
                    <g>
                        <path d="M19.677 14.355h-.322v-2.753c-.001-.76-.578-1.375-1.29-1.376v-5.85c-.001-.76-.579-1.375-1.29-1.376H3.224c-.711.001-1.289.617-1.29 1.376v5.85c-.712 0-1.289.616-1.29 1.376v2.753H.323c-.179 0-.323.154-.323.344v1.376c0 .19.144.344.323.344h.322v1.377c0 .19.145.344.323.344h.967c.154 0 .287-.116.317-.277l.27-1.444h14.955l.271 1.444c.03.161.163.277.317.277h.967c.178 0 .323-.154.323-.344v-1.377h.322c.179 0 .323-.154.323-.344V14.7c0-.19-.144-.344-.323-.344zM2.581 4.376c0-.38.289-.687.645-.688h13.548c.356 0 .645.308.645.688v5.85h-.645V8.849c0-.76-.578-1.375-1.29-1.376h-3.871c-.712.001-1.29.617-1.29 1.376v1.377h-.646V8.849c0-.76-.578-1.375-1.29-1.376h-3.87c-.713.001-1.29.617-1.291 1.376v1.377H2.58v-5.85zM16.129 8.85v1.377h-5.161V8.849c0-.38.289-.687.645-.688h3.87c.357 0 .646.309.646.688zm-7.097 0v1.377H3.871V8.849c0-.38.289-.687.645-.688h3.871c.356 0 .645.309.645.688zM1.29 11.602c0-.38.29-.688.645-.688h16.13c.356 0 .644.308.645.688v2.753H1.29v-2.753zm.381 5.85h-.38v-1.033h.574l-.194 1.033zm17.039 0h-.381l-.194-1.033h.575v1.033zm.645-1.72H.645v-.689h18.71v.688z" transform="translate(-70 -1528) translate(0 1012) translate(60 147) translate(10 366)"/>
                    </g>
                </g>
            </g>
        </g>
    </g>
</svg>
