<svg xmlns="http://www.w3.org/2000/svg" xmlns:xlink="http://www.w3.org/1999/xlink" width="1440" height="441" viewBox="0 0 1440 441">
    <defs>
        <path id="yovwx01jca" d="M0 0H1440V441H0z"/>
    </defs>
    <g fill="none" fill-rule="evenodd">
        <g>
            <g transform="translate(0.000000, -159.000000) translate(0.000000, 159.000000)">
                <mask id="q5mrxw0hnb" fill="#fff">
                    <use xlink:href="#yovwx01jca"/>
                </mask>
                <g fill="#FDF5DF" mask="url(#q5mrxw0hnb)">
                    <g>
                        <path d="M961.5 0c146.431 0 271.708 77.278 322.868 186.644l-.012-.003C1333.002 164.53 1388.536 152 1447.5 152c191.919 0 347.5 132.748 347.5 296.5S1639.419 745 1447.5 745c-146.431 0-271.708-77.278-322.868-186.644l.012.003C1075.998 580.47 1020.464 593 961.5 593c-70.594 0-136.272-17.96-191.098-48.82l.01.002C707.941 595.468 623.036 627 529.5 627 337.581 627 182 494.252 182 330.5S337.581 34 529.5 34c70.594 0 136.272 17.96 191.098 48.82l-.01-.002C783.059 31.532 867.964 0 961.5 0z" opacity=".805" transform="translate(-209.000000, -328.000000)"/>
                        <path d="M779.5 44c146.431 0 271.708 77.278 322.868 186.644l-.012-.003C1151.002 208.53 1206.536 196 1265.5 196c191.919 0 347.5 132.748 347.5 296.5S1457.419 789 1265.5 789c-146.431 0-271.708-77.278-322.868-186.644l.012.003C893.998 624.47 838.464 637 779.5 637c-70.594 0-136.272-17.96-191.098-48.82l.01.002C525.941 639.468 441.036 671 347.5 671 155.581 671 0 538.252 0 374.5S155.581 78 347.5 78c70.594 0 136.272 17.96 191.098 48.82l-.01-.002C601.059 75.532 685.964 44 779.5 44z" opacity=".509" transform="translate(-209.000000, -328.000000)"/>
                    </g>
                </g>
            </g>
        </g>
    </g>
</svg>
