<svg xmlns="http://www.w3.org/2000/svg" width="16" height="16" viewBox="0 0 16 16">
    <g fill="none" fill-rule="evenodd">
        <g fill="#F1942A" fill-rule="nonzero">
            <g>
                <path d="M14.75 9.781v4.344c0 .345-.28.625-.625.625H1.875c-.345 0-.625-.28-.625-.625V9.781H0v4.344C0 15.159.841 16 1.875 16h12.25C15.159 16 16 15.159 16 14.125V9.781h-1.25z" transform="translate(-1393 -709) translate(1393 709)"/>
                <path d="M11 7.366L8.625 9.741 8.625 0 7.375 0 7.375 9.741 5 7.366 4.116 8.25 8 12.134 11.884 8.25z" transform="translate(-1393 -709) translate(1393 709)"/>
            </g>
        </g>
    </g>
</svg>
