<svg version="1.2" baseProfile="tiny-ps" xmlns="http://www.w3.org/2000/svg" viewBox="0 0 512 512" width="512" height="512">
	<title>error-svg</title>
	<style>
		tspan { white-space:pre }
		.shp0 { fill: #ffffff } 
		.shp1 { fill: #000000 } 
		.shp2 { fill: #dc3545 } 
	</style>
	<g id="Layer">
		<path id="Layer" class="shp0" d="M512 256C512 324.11 485.56 388.21 437.55 436.5C389.57 484.75 325.7 511.56 257.68 511.99C257.51 511.99 257.33 512 257.16 511.99C256.78 512 256.39 512 256 512C187.63 512 123.34 485.38 74.99 437.02C26.63 388.67 0 324.38 0 256C0 187.62 26.63 123.34 74.99 74.98C123.34 26.63 187.63 0 256 0C256.39 0 256.77 0 257.16 0.01C257.34 0.01 257.52 0.01 257.7 0.02C325.71 0.46 389.58 27.26 437.55 75.51C485.56 123.8 512 187.9 512 256Z" />
		<path id="Layer" class="shp0" d="M512 256C512 324.11 485.56 388.21 437.55 436.5C389.57 484.75 325.7 511.56 257.68 511.99C257.51 511.99 257.33 512 257.16 511.99L257.16 0.01C257.34 0.01 257.52 0.01 257.7 0.02C325.71 0.46 389.58 27.26 437.55 75.51C485.56 123.8 512 187.9 512 256L512 256Z" />
		<path id="Layer" class="shp1" d="M257.27 107.8C257.68 107.8 256.9 107.8 257.27 107.8Z" />
		<path id="Layer" class="shp2" d="M299.92 150.46L299.92 264.9C299.92 288.42 280.79 307.56 257.27 307.56L257.16 307.56C246.17 307.24 234.83 302.8 227.1 295.07C219.05 287.01 214.61 276.3 214.61 264.9L214.61 150.46C214.61 127.2 233.92 108.47 257.16 107.8L257.27 107.8C280.79 107.8 299.92 126.94 299.92 150.46L299.92 150.46Z" />
		<path id="Layer" class="shp1" d="M257.27 307.56C256.9 307.56 257.63 307.57 257.27 307.56Z" />
		<path id="Layer" class="shp2" d="M297.64 361.64C297.64 383.91 279.53 402.02 257.26 402.02L257.16 402.02C234.95 401.97 216.89 383.88 216.89 361.64C216.89 339.41 234.95 321.32 257.16 321.27L257.26 321.27C279.53 321.27 297.64 339.38 297.64 361.64Z" />
		<g id="Layer">
			<path id="Layer" class="shp2" d="M297.64 361.64C297.64 383.91 279.53 402.02 257.26 402.02L257.16 402.02L257.16 321.27L257.26 321.27C279.53 321.27 297.64 339.38 297.64 361.64Z" />
			<path id="Layer" class="shp2" d="M299.92 150.46L299.92 264.9C299.92 288.42 280.79 307.56 257.27 307.56L257.16 307.56L257.16 107.8L257.27 107.8C280.79 107.8 299.92 126.94 299.92 150.46L299.92 150.46Z" />
		</g>
	</g>
</svg>