<?xml version="1.0" encoding="UTF-8"?>
<svg width="456px" height="385px" viewBox="0 0 456 385" version="1.1" xmlns="http://www.w3.org/2000/svg" xmlns:xlink="http://www.w3.org/1999/xlink">
    <title>Hide PWD</title>
    <g id="Page-1" stroke="none" stroke-width="1" fill="none" fill-rule="evenodd" opacity="0.5">
        <g id="Artboard" transform="translate(-22.000000, -58.000000)" fill="#262626">
            <path d="M169.115166,66.4269342 L357.373262,420.488919 C361.262492,427.803496 358.485699,436.885976 351.171122,440.775206 C343.856544,444.664436 334.774064,441.887643 330.884834,434.573066 L142.626738,80.5110811 C138.737508,73.1965037 141.514301,64.1140235 148.828878,60.2247937 C156.143456,56.335564 165.225936,59.1123568 169.115166,66.4269342 Z M162.437828,139.195786 L186.419943,184.300892 C170.098153,200.592367 160,223.116909 160,248 C160,297.705627 200.294373,338 250,338 C255.904565,338 261.676325,337.431397 267.263512,336.34596 L285.403074,370.461755 C273.763427,372.153918 261.962402,373 250,373 C166.052718,373 90.052718,331.333333 22,248 C65.5569263,194.662764 112.369536,158.394693 162.437828,139.195786 Z M250,123 C333.947282,123 409.947282,164.666667 478,248 C434.042985,301.82716 386.770203,338.270142 336.181653,357.328944 L312.489933,312.769008 C329.451028,296.401083 340,273.432464 340,248 C340,198.294373 299.705627,158 250,158 C243.56655,158 237.290762,158.675027 231.239597,159.958117 L213.058943,125.766902 C225.196714,123.922301 237.510399,123 250,123 Z M207.414117,223.786606 L247.914997,299.957316 C221.267691,298.864263 200,276.915799 200,250 C200,240.387396 202.712613,231.408357 207.414117,223.786606 Z M252.563856,200.064597 C278.986642,201.399179 300,223.245623 300,250 C300,259.44122 297.383251,268.271265 292.835454,275.804437 L252.563856,200.064597 Z" id="Hide-PWD"></path>
        </g>
    </g>
</svg>