<?xml version="1.0" encoding="utf-8"?>
<!-- Generator: Adobe Illustrator 25.2.2, SVG Export Plug-In . SVG Version: 6.00 Build 0)  -->
<svg version="1.1" id="Layer_1" xmlns="http://www.w3.org/2000/svg" xmlns:xlink="http://www.w3.org/1999/xlink" x="0px" y="0px"
	 viewBox="0 0 16 16" style="enable-background:new 0 0 16 16;" xml:space="preserve">
<style type="text/css">
	.st0{opacity:0.65;}
	.st1{opacity:0.65;fill:#262626;enable-background:new    ;}
	.st2{display:none;}
	.st3{display:inline;}
	.st4{fill:#262626;}
	.st5{opacity:0.65;enable-background:new    ;}
</style>
<g id="Layer_1_1_" class="st0">
	<path class="st1" d="M15.8,15.1l-4.2-4.2c1-1.1,1.6-2.6,1.6-4.2c0-3.6-2.9-6.5-6.5-6.5C3,0.1,0.1,3,0.1,6.7s2.9,6.5,6.5,6.5
		c1.7,0,3.2-0.6,4.3-1.6l4.2,4.2c0.1,0.1,0.2,0.1,0.3,0.1s0.2,0,0.3-0.1C16,15.6,16,15.3,15.8,15.1z M1,6.7C1,3.6,3.5,1,6.6,1
		s5.6,2.5,5.6,5.6c0,1.5-0.6,2.9-1.6,3.9l0,0l0,0c-1,1-2.4,1.7-4,1.7C3.5,12.3,1,9.7,1,6.7z"/>
</g>
<g id="Layer_2_1_" class="st2">
	<g class="st3">
		<g class="st0">
			<g>
				<path class="st4" d="M8,1.1c3.8,0,6.9,3.1,6.9,6.9s-3.1,6.9-6.9,6.9S1.1,11.8,1.1,8S4.2,1.1,8,1.1 M8,0.1C3.6,0.1,0.1,3.6,0.1,8
					s3.5,7.9,7.9,7.9s7.9-3.5,7.9-7.9S12.4,0.1,8,0.1L8,0.1z"/>
			</g>
		</g>
		<path class="st5" d="M12,11.2L8.7,7.9L12,4.6c0.2-0.2,0.2-0.5,0-0.7s-0.5-0.2-0.7,0L8,7.2L4.8,4C4.6,3.8,4.3,3.8,4.1,4
			C4,4.2,4,4.5,4.1,4.7l3.2,3.2l-3,3c-0.2,0.2-0.2,0.5,0,0.7c0.1,0.1,0.2,0.1,0.3,0.1c0.1,0,0.3,0,0.3-0.1l3-3l3.3,3.3
			c0.1,0.1,0.2,0.1,0.3,0.1s0.3,0,0.3-0.1C12.2,11.7,12.2,11.4,12,11.2z"/>
	</g>
</g>
</svg>
