<?xml version="1.0" encoding="utf-8"?>
<!-- Generator: Adobe Illustrator 25.2.2, SVG Export Plug-In . SVG Version: 6.00 Build 0)  -->
<svg version="1.1" id="Layer_1" xmlns="http://www.w3.org/2000/svg" xmlns:xlink="http://www.w3.org/1999/xlink" x="0px" y="0px"
	 viewBox="0 0 24 24" style="enable-background:new 0 0 24 24;" xml:space="preserve">
<style type="text/css">
	.st0{fill:none;}
	.st1{fill:#FFFFFF;fill-opacity:0.65;}
</style>
<g>
	<g>
		<g>
			<path class="st0" d="M24,0H0v24h24V0z"/>
			<path class="st1" d="M3.2,3.2c0.3-0.3,0.7-0.3,1,0L12,11l7.8-7.8c0.3-0.3,0.7-0.3,1-0.1l0.1,0.1c0.3,0.3,0.3,0.7,0,1L13,12
				l7.8,7.8c0.3,0.3,0.3,0.7,0.1,1l-0.1,0.1c-0.3,0.3-0.7,0.3-1,0L12,13l-7.8,7.8c-0.3,0.3-0.7,0.3-1,0.1l-0.1-0.1
				c-0.3-0.3-0.3-0.7,0-1L11,12L3.2,4.2C3,4,2.9,3.6,3.2,3.2L3.2,3.2z"/>
		</g>
	</g>
</g>
</svg>
