<?xml version="1.0" encoding="utf-8"?>
<!-- Generator: Adobe Illustrator 25.2.1, SVG Export Plug-In . SVG Version: 6.00 Build 0)  -->
<svg version="1.1" xmlns="http://www.w3.org/2000/svg" xmlns:xlink="http://www.w3.org/1999/xlink" x="0px" y="0px"
	 viewBox="0 0 30 29" style="enable-background:new 0 0 30 29;" xml:space="preserve">
<style type="text/css">
	.st0{display:none;}
	.st1{display:inline;fill:#8F9296;}
	.st2{fill:#FE7400;}
</style>
<g id="Layer_1" class="st0">
	<path class="st1" d="M3.8,26.5c0,0-0.1,2,1.6,2H11v-9.3c0,0-0.1-1.5,1.6-1.7h4.7c0,0,1.3-0.2,1.6,1.8v9.4h5c0,0,2.1,0.1,2.1-2.1
		V15.5h4l-4-5.6V2.4h-5v2.8l-4.7-4.2c0,0-1.4-1.5-2.8-0.1L0,14.7h3.7L3.8,26.5z"/>
</g>
<g id="Layer_2">
	<g>
		<polygon class="st2" points="0.2,28.4 0.2,12.6 7.2,7.7 7.2,28.4 		"/>
		<polygon class="st2" points="9.2,28.4 9.2,0.5 21.1,0.5 21.1,28.4 		"/>
		<polygon class="st2" points="23.1,28.5 23.1,15.3 26.6,11.1 29.8,15.2 29.8,28.5 		"/>
	</g>
</g>
</svg>
