<svg xmlns="http://www.w3.org/2000/svg" width="24" height="24" viewBox="0 0 24 24">
    <g fill="none" fill-rule="evenodd">
        <g>
            <g>
                <path d="M24 0L0 0 0 24 24 24z" transform="translate(-1356 -18) translate(1356 18)"/>
                <path fill="#262626" fill-opacity=".65" fill-rule="nonzero" d="M3.214 3.213c.285-.284.746-.284 1.031 0l7.752 7.758 7.753-7.757c.258-.26.664-.283.95-.071l.08.07c.286.285.286.747.001 1.032l-7.753 7.758 7.753 7.759c.26.259.282.664.07.95l-.07.081c-.285.285-.747.285-1.031 0l-7.753-7.759-7.752 7.759c-.259.259-.664.282-.95.07l-.081-.07c-.285-.284-.285-.746 0-1.031l7.752-7.759-7.753-7.758c-.258-.26-.282-.664-.07-.95z" transform="translate(-1356 -18) translate(1356 18)"/>
            </g>
        </g>
    </g>
</svg>
