<?xml version="1.0" encoding="utf-8"?>
<!-- Generator: Adobe Illustrator 25.2.1, SVG Export Plug-In . SVG Version: 6.00 Build 0)  -->
<svg version="1.1" id="Layer_1" xmlns="http://www.w3.org/2000/svg" xmlns:xlink="http://www.w3.org/1999/xlink" x="0px" y="0px"
	 viewBox="0 0 30 30" style="enable-background:new 0 0 30 30;" xml:space="preserve">
<style type="text/css">
	.st0{fill:#FE7400;stroke:#FE7400;stroke-width:2;}
</style>
<path class="st0" d="M19.4,3.7c1.5-0.5,3.2-0.7,4.9-0.2c1.2,0.3,2.2,1,3.1,2.2c0.7,1,1,2.4,1,4.3c0,7.2-5.8,11.1-10.6,14.5
	c-1,0.7-2,1.4-2.9,2.2c-0.9-0.7-1.9-1.4-2.9-2C7.3,21.3,1.5,17.4,1.5,10.2c0-1.9,0.3-3.2,1-4.3c0.7-1.2,1.9-1.9,3.1-2.2
	C7.2,3.2,9,3.4,10.6,3.9c1.2,0.2,2.4,1,2.9,2l0,0l1.5,4.3L16.5,6C17,4.9,18.1,4.1,19.4,3.7z"/>
</svg>
