<?xml version="1.0" encoding="utf-8"?>
<!-- Generator: Adobe Illustrator 25.3.1, SVG Export Plug-In . SVG Version: 6.00 Build 0)  -->
<svg version="1.1" id="Layer_1" xmlns="http://www.w3.org/2000/svg" xmlns:xlink="http://www.w3.org/1999/xlink" x="0px" y="0px"
	 viewBox="0 0 36 36" style="enable-background:new 0 0 36 36;" xml:space="preserve">
<style type="text/css">
	.st0{fill:#F47421;}
</style>
<g>
	<path class="st0" d="M26.93,12.53c-0.58-0.58-1.51-0.58-2.08,0l-9.46,9.46l-4.77-4.77c-0.58-0.58-1.51-0.58-2.08,0
		c-0.58,0.58-0.58,1.51,0,2.08l5.81,5.81c0.58,0.58,1.51,0.58,2.08,0c0,0,0,0,0,0c0.01-0.01,0.02-0.01,0.02-0.02l10.48-10.48
		C27.5,14.04,27.5,13.11,26.93,12.53z"/>
	<g>
		<path class="st0" d="M18,1.69c8.99,0,16.3,7.31,16.3,16.3s-7.31,16.3-16.3,16.3S1.7,26.98,1.7,17.99S9.01,1.69,18,1.69 M18,0.19
			c-9.83,0-17.8,7.97-17.8,17.8s7.97,17.8,17.8,17.8s17.8-7.97,17.8-17.8S27.83,0.19,18,0.19L18,0.19z"/>
	</g>
</g>
</svg>
