<svg xmlns="http://www.w3.org/2000/svg" width="16" height="16" viewBox="0 0 16 16">
    <g fill="none" fill-rule="evenodd">
        <g>
            <g>
                <g>
                    <g>
                        <path d="M0 0H16V16H0z" transform="translate(-1237 -209) translate(1211 193) translate(22 12) translate(4 4)"/>
                        <path fill="#FFF" d="M10.451.389l2.598 1.5c.478.276.642.888.366 1.366l-5.75 9.96c-.014.023-.03.046-.047.067l.047-.068c-.02.034-.043.065-.069.093l-.039.037-.02.016-.03.021L5.056 15H12.5c.276 0 .5.224.5.5s-.224.5-.5.5h-9c-.276 0-.5-.224-.5-.5l.002-.02c-.002-.027-.003-.054-.001-.082l.268-4.464.002-.027.006-.038-.008.065c.004-.077.027-.153.066-.22l5.75-9.96C9.36.278 9.973.114 10.45.39zM4.219 11.802l-.16 2.658 2.223-1.467-2.063-1.191zm4.232-7.95l-4 6.929 2.598 1.5 4-6.928-2.598-1.5zm1.5-2.597l-1 1.732 2.598 1.5 1-1.732-2.598-1.5z" transform="translate(-1237 -209) translate(1211 193) translate(22 12) translate(4 4)"/>
                    </g>
                </g>
            </g>
        </g>
    </g>
</svg>
