<?xml version="1.0" encoding="utf-8"?>
<!-- Generator: Adobe Illustrator 25.1.0, SVG Export Plug-In . SVG Version: 6.00 Build 0)  -->
<svg version="1.1" id="Layer_1" xmlns="http://www.w3.org/2000/svg" xmlns:xlink="http://www.w3.org/1999/xlink" x="0px" y="0px"
	 viewBox="0 0 16 16" style="enable-background:new 0 0 16 16;" xml:space="preserve">
<style type="text/css">
	.st0{fill:#727272;}
</style>
<g>
	<path class="st0" d="M14.32,0H2.68C2.03,0,1.5,0.53,1.5,1.18V3h-1v1h1v3h-1v1h1v3h-1v1h1v2.82C1.5,15.47,2.03,16,2.68,16h11.65
		c0.65,0,1.18-0.53,1.18-1.18V1.18C15.5,0.53,14.97,0,14.32,0z M14.5,14.82c0,0.1-0.08,0.18-0.18,0.18H2.68
		c-0.1,0-0.18-0.08-0.18-0.18V12h1v-1h-1V8h1V7h-1V4h1V3h-1V1.18C2.5,1.08,2.58,1,2.68,1h11.65c0.1,0,0.18,0.08,0.18,0.18V14.82z"/>
	<rect x="5.5" y="5" class="st0" width="7" height="1"/>
	<rect x="5.5" y="8" class="st0" width="5" height="1"/>
</g>
</svg>
