<svg xmlns="http://www.w3.org/2000/svg" width="20" height="20" viewBox="0 0 20 20">
    <g fill="none" fill-rule="evenodd">
        <g fill="#FFF" fill-rule="nonzero">
            <g>
                <path d="M40 25.087V20.9c0-.507-.413-.9-.9-.9h-5.02c-.49 0-.9.395-.9.9v.355H28.35C27.455 20.444 26.305 20 25.087 20H20.9c-.49 0-.9.395-.9.9v5.02c0 .508.413.9.9.9h.355v4.829c-.811.897-1.255 2.046-1.255 3.264V39.1c0 .507.413.9.9.9h5.02c.238 0 .47-.096.636-.263.17-.17.264-.396.264-.637v-.355h4.829c.897.811 2.046 1.255 3.264 1.255H39.1c.489 0 .9-.395.9-.9v-5.02c0-.507-.413-.9-.9-.9h-.355V28.35c.811-.897 1.255-2.046 1.255-3.264zm-18.828.561v-4.476h3.915c.985 0 1.912.382 2.61 1.078.107.11.255.177.42.177h5.063v2.594h-5.063c-.196 0-.379.098-.487.26l-.56.84c-.214.321-.523.558-.877.683v-.57c0-.323-.263-.586-.586-.586h-4.435zm5.062 8.16c-.323 0-.586.262-.586.585v4.435h-4.476v-3.915c0-.988.385-1.917 1.083-2.616.11-.11.172-.259.172-.414V26.82h2.594v5.063c0 .196.098.379.26.487l.84.56c.321.214.558.523.683.877h-.57zm.536-1.854l-.577-.385v-3.553c.75-.152 1.418-.594 1.853-1.246l.385-.577h3.553c.152.75.594 1.418 1.246 1.853l.577.385v3.553c-.75.152-1.418.594-1.853 1.246l-.385.577h-3.553c-.152-.75-.594-1.418-1.246-1.853zm12.058 2.398v4.476h-3.915c-.988 0-1.917-.385-2.616-1.083-.11-.11-.259-.172-.414-.172H26.82v-2.594h5.063c.196 0 .379-.098.487-.26l.56-.84c.214-.321.523-.558.877-.683v.57c0 .323.263.586.586.586h4.435zm-1.083-6.65c-.11.11-.172.26-.172.415v5.063h-2.594v-5.063c0-.196-.098-.379-.26-.487l-.84-.56c-.321-.214-.558-.523-.683-.877h.57c.323 0 .586-.263.586-.586v-4.435h4.476v3.915c0 .988-.385 1.917-1.083 2.616z" transform="translate(-860 -303) translate(840 283)"/>
            </g>
        </g>
    </g>
</svg>
