<?xml version="1.0" encoding="utf-8"?>
<!-- Generator: Adobe Illustrator 25.2.2, SVG Export Plug-In . SVG Version: 6.00 Build 0)  -->
<svg version="1.1" xmlns="http://www.w3.org/2000/svg" xmlns:xlink="http://www.w3.org/1999/xlink" x="0px" y="0px"
	 viewBox="0 0 16 16" style="enable-background:new 0 0 16 16;" xml:space="preserve">
<style type="text/css">
	.st0{fill:#FFFFFF;}
	.st1{display:none;}
	.st2{display:inline;}
	.st3{fill:#FE7400;}
</style>
<g id="Layer_1">
	<g>
		<path class="st0" d="M14.6,3.4H7.1c-0.5,0-1-0.4-1-1v0c0-0.5,0.4-1,1-1h7.5c0.5,0,1,0.4,1,1v0C15.6,3,15.1,3.4,14.6,3.4z"/>
		<path class="st0" d="M14.6,9H7.1c-0.5,0-1-0.4-1-1v0c0-0.5,0.4-1,1-1h7.5c0.5,0,1,0.4,1,1v0C15.6,8.6,15.1,9,14.6,9z"/>
		<path class="st0" d="M14.6,14.6H7.1c-0.5,0-1-0.4-1-1v0c0-0.5,0.4-1,1-1h7.5c0.5,0,1,0.4,1,1v0C15.6,14.2,15.1,14.6,14.6,14.6z"/>
		<path class="st0" d="M3.6,1.4v2h-2v-2H3.6 M4.5,0.5H0.6v3.8h3.9V0.5L4.5,0.5z"/>
		<path class="st0" d="M3.6,7v2h-2V7H3.6 M4.5,6.1H0.6v3.8h3.9V6.1L4.5,6.1z"/>
		<path class="st0" d="M3.6,12.6v2h-2v-2H3.6 M4.5,11.6H0.6v3.8h3.9V11.6L4.5,11.6z"/>
	</g>
</g>
<g id="Layer_2" class="st1">
	<g class="st2">
		<path class="st3" d="M8.1,1.2L8.1,1.2L8.1,1.2c1.8,0,2.8,0.8,3.4,1.5c0.9,1,1.3,2.5,1.2,3.9c-0.2,2-2.4,5.8-4.6,7.8
			c-1.2-1.1-4.3-4.1-4.8-7c-0.3-2,0-3.6,1-4.7C5.1,1.8,6.5,1.2,8.1,1.2 M8.1,0.4c-3.5,0-6.4,2.3-5.6,7.2c0.6,3.9,5.6,7.9,5.6,7.9
			c2.6-1.9,5.2-6.2,5.5-8.7C13.9,3.6,11.8,0.5,8.1,0.4C8.2,0.4,8.2,0.4,8.1,0.4L8.1,0.4z"/>
		<path class="st3" d="M8.1,4.2c1.1,0,2,0.9,2,2s-0.9,2-2,2s-2-0.9-2-2S7,4.2,8.1,4.2 M8.1,3.4c-1.5,0-2.8,1.2-2.8,2.8
			c0,1.5,1.2,2.8,2.8,2.8s2.8-1.2,2.8-2.8C10.8,4.6,9.6,3.4,8.1,3.4L8.1,3.4z"/>
	</g>
</g>
</svg>
