<svg xmlns="http://www.w3.org/2000/svg" width="16" height="16" viewBox="0 0 16 16">
    <g fill="none" fill-rule="evenodd">
        <g>
            <g>
                <path d="M0 0H16V16H0z" transform="translate(-1393 -765) translate(1393 765)"/>
                <path fill="#EB983B" d="M9.5 2c-.276 0-.5-.224-.5-.5s.224-.5.5-.5h5c.276 0 .5.224.5.5v5c0 .276-.224.5-.5.5s-.5-.224-.5-.5V2.707l-8.146 8.147c-.196.195-.512.195-.708 0-.195-.196-.195-.512 0-.708L13.293 2H9.5zM14 14v-3.5c0-.276.224-.5.5-.5s.5.224.5.5v4c0 .276-.224.5-.5.5h-13c-.276 0-.5-.224-.5-.5v-13c0-.276.224-.5.5-.5h4c.276 0 .5.224.5.5s-.224.5-.5.5H2v12h12z" transform="translate(-1393 -765) translate(1393 765)"/>
            </g>
        </g>
    </g>
</svg>
