<?xml version="1.0" encoding="utf-8"?>
<!-- Generator: Adobe Illustrator 25.2.2, SVG Export Plug-In . SVG Version: 6.00 Build 0)  -->
<svg version="1.1" id="Layer_1" xmlns="http://www.w3.org/2000/svg" xmlns:xlink="http://www.w3.org/1999/xlink" x="0px" y="0px"
	 viewBox="0 0 12 12" style="enable-background:new 0 0 12 12;" xml:space="preserve">
<style type="text/css">
	.st0{opacity:0.65;fill:#727272;enable-background:new    ;}
</style>
<g>
	<path class="st0" d="M6,0.1C2.7,0.1,0.1,2.7,0.1,6s2.6,5.9,5.9,5.9c3.3,0,5.9-2.6,5.9-5.9S9.3,0.1,6,0.1z M6,11.2
		c-2.9,0-5.2-2.3-5.2-5.2S3.1,0.8,6,0.8s5.2,2.3,5.2,5.2S8.9,11.2,6,11.2z"/>
	<path class="st0" d="M8.9,3C8.8,2.9,8.6,2.9,8.4,3L5.9,5.5L3.5,3.1C3.4,3,3.1,3,3,3.1C2.9,3.3,2.9,3.5,3,3.6L5.4,6L3.1,8.3
		C3,8.4,3,8.7,3.1,8.8c0.1,0.1,0.2,0.1,0.2,0.1c0.1,0,0.2,0,0.2-0.1l2.3-2.3L8.3,9c0.1,0.1,0.2,0.1,0.2,0.1c0.1,0,0.2,0,0.2-0.1
		c0.3-0.2,0.3-0.4,0.2-0.5L6.5,6l2.5-2.5C9.1,3.4,9.1,3.2,8.9,3z"/>
</g>
</svg>
