<svg xmlns="http://www.w3.org/2000/svg" width="44" height="44" viewBox="0 0 44 44">
    <g fill="none" fill-rule="evenodd">
        <g fill-rule="nonzero">
            <g>
                <g transform="translate(-985 -445) translate(974 434) translate(11 11)">
                    <rect width="44" height="44" fill="#FFF" rx="2.75"/>
                    <path stroke="#262626" stroke-opacity=".65" stroke-width="1.375" d="M13.75 28.188c.57 0 1.085.23 1.458.604.374.373.604.888.604 1.458s-.23 1.085-.604 1.458c-.373.374-.888.605-1.458.605s-1.085-.231-1.458-.605c-.374-.373-.604-.888-.604-1.458s.23-1.085.604-1.458c.373-.374.888-.605 1.458-.605zm8.25 0c.57 0 1.085.23 1.458.604.374.373.605.888.605 1.458s-.231 1.085-.605 1.458c-.373.374-.888.605-1.458.605s-1.085-.231-1.458-.605c-.374-.373-.605-.888-.605-1.458s.231-1.085.605-1.458c.373-.374.888-.605 1.458-.605zm8.25 0c.57 0 1.085.23 1.458.604.374.373.605.888.605 1.458s-.231 1.085-.605 1.458c-.373.374-.888.605-1.458.605s-1.085-.231-1.458-.605c-.374-.373-.605-.888-.605-1.458s.231-1.085.605-1.458c.373-.374.888-.605 1.458-.605zm-16.5-8.25c.57 0 1.085.23 1.458.604.374.373.604.888.604 1.458s-.23 1.085-.604 1.458c-.373.374-.888.605-1.458.605s-1.085-.231-1.458-.605c-.374-.373-.604-.888-.604-1.458s.23-1.085.604-1.458c.373-.374.888-.605 1.458-.605zm8.25 0c.57 0 1.085.23 1.458.604.374.373.605.888.605 1.458s-.231 1.085-.605 1.458c-.373.374-.888.605-1.458.605s-1.085-.231-1.458-.605c-.374-.373-.605-.888-.605-1.458s.231-1.085.605-1.458c.373-.374.888-.605 1.458-.605zm8.25 0c.57 0 1.085.23 1.458.604.374.373.605.888.605 1.458s-.231 1.085-.605 1.458c-.373.374-.888.605-1.458.605s-1.085-.231-1.458-.605c-.374-.373-.605-.888-.605-1.458s.231-1.085.605-1.458c.373-.374.888-.605 1.458-.605zm-16.5-8.25c.57 0 1.085.23 1.458.604.374.373.604.888.604 1.458s-.23 1.085-.604 1.458c-.373.374-.888.604-1.458.604s-1.085-.23-1.458-.604c-.374-.373-.604-.888-.604-1.458s.23-1.085.604-1.458c.373-.374.888-.604 1.458-.604zm8.25 0c.57 0 1.085.23 1.458.604.374.373.605.888.605 1.458s-.231 1.085-.605 1.458c-.373.374-.888.604-1.458.604s-1.085-.23-1.458-.604c-.374-.373-.605-.888-.605-1.458s.231-1.085.605-1.458c.373-.374.888-.604 1.458-.604zm8.25 0c.57 0 1.085.23 1.458.604.374.373.605.888.605 1.458s-.231 1.085-.605 1.458c-.373.374-.888.604-1.458.604s-1.085-.23-1.458-.604c-.374-.373-.605-.888-.605-1.458s.231-1.085.605-1.458c.373-.374.888-.604 1.458-.604z"/>
                </g>
            </g>
        </g>
    </g>
</svg>
