<svg xmlns="http://www.w3.org/2000/svg" width="16" height="16" viewBox="0 0 16 16">
    <g fill="none" fill-rule="evenodd">
        <g fill="#FE7400" fill-rule="nonzero">
            <g>
                <g>
                    <path d="M11.528.8l.944.545-1.25 2.167-.946-.546L11.528.8zM15.2 4.471l-.546-.944-2.167 1.25.546.946L15.2 4.472zm-1.704 4.073H16v-1.09h-2.503v1.09zm-1.009 2.676l2.167 1.251.546-.944-2.167-1.252-.546.945zm-2.212 1.813l1.252 2.167.944-.546-1.25-2.167-.946.546zM7.455 16h1.09v-2.503h-1.09V16zm-3.927-1.345l.944.546 1.252-2.167-.945-.546-1.251 2.167zM.799 11.528l.546.944 2.167-1.25-.546-.946L.8 11.528zM0 8.545h2.503v-1.09H0v1.09zM3.512 4.78L1.345 3.528l-.546.944 2.167 1.252.546-.945zm.016-3.434l1.25 2.167.946-.546L4.472.8l-.944.546zm3.927 1.157h1.09V0h-1.09v2.502z" transform="translate(-894 -530) translate(520 520) translate(374 10)"/>
                </g>
            </g>
        </g>
    </g>
</svg>
