<svg xmlns="http://www.w3.org/2000/svg" xmlns:xlink="http://www.w3.org/1999/xlink" width="16" height="15" viewBox="0 0 16 15">
    <defs>
        <path id="0khpmttt7a" d="M14.614 2.061c-.555.3-1.171.516-1.824.631-.525-.505-1.27-.82-2.096-.82-1.587 0-2.874 1.165-2.874 2.6 0 .203.026.401.074.593-2.387-.11-4.503-1.144-5.919-2.718-.248.384-.389.832-.389 1.308 0 .902.506 1.698 1.278 2.164-.47-.014-.914-.13-1.3-.326-.002.012-.002.023-.002.033 0 1.26.99 2.31 2.304 2.55-.24.06-.495.09-.757.09-.184 0-.364-.016-.539-.046.365 1.034 1.425 1.785 2.682 1.806-.984.698-2.221 1.112-3.568 1.112-.232 0-.46-.01-.684-.034 1.27.736 2.78 1.167 4.403 1.167 5.282 0 8.171-3.962 8.171-7.398 0-.112-.001-.225-.007-.337.56-.366 1.048-.823 1.433-1.344-.515.205-1.068.345-1.65.408.593-.321 1.048-.83 1.264-1.439z"/>
    </defs>
    <g fill="none" fill-rule="evenodd">
        <g>
            <g>
                <g>
                    <g transform="translate(-1364 -4193) translate(0 4130) translate(1237 30) translate(127 33)">
                        <path d="M0 0L16 0 16 14.98 0 14.98z"/>
                        <use fill="#FFF" xlink:href="#0khpmttt7a"/>
                    </g>
                </g>
            </g>
        </g>
    </g>
</svg>
