<svg xmlns="http://www.w3.org/2000/svg" xmlns:xlink="http://www.w3.org/1999/xlink" width="16" height="16" viewBox="0 0 16 16">
    <defs>
        <path id="svuhf0ubba" d="M8 .936c1.901 0 2.14.008 2.886.04.745.031 1.254.142 1.7.304.46.168.85.392 1.24.756.388.365.628.73.807 1.161.173.417.29.893.325 1.59.034.7.042.923.042 2.703 0 1.78-.008 2.003-.042 2.702-.034.698-.152 1.174-.325 1.59-.18.432-.419.797-.808 1.162-.389.364-.78.588-1.24.756-.445.162-.954.272-1.699.304-.747.032-.985.04-2.886.04-1.901 0-2.14-.008-2.886-.04-.745-.032-1.254-.142-1.7-.304-.46-.168-.85-.392-1.24-.756-.388-.365-.628-.73-.806-1.161-.174-.417-.292-.893-.326-1.591C1.008 9.493 1 9.27 1 7.49c0-1.78.008-2.003.042-2.702.034-.698.152-1.174.326-1.591.178-.43.418-.796.807-1.16.389-.365.78-.59 1.24-.757.445-.162.954-.273 1.699-.304C5.86.944 6.099.936 8 .936zm-.043 8.79c-1.296 0-2.346-.983-2.346-2.196s1.05-2.196 2.346-2.196 2.346.983 2.346 2.196-1.05 2.197-2.346 2.197zm0-5.58c-1.996 0-3.614 1.515-3.614 3.384s1.618 3.384 3.614 3.384c1.996 0 3.614-1.515 3.614-3.384S9.953 4.147 7.957 4.147zm4.608-.126c0-.444-.384-.804-.858-.804s-.859.36-.859.804c0 .443.385.803.859.803s.858-.36.858-.803z"/>
    </defs>
    <g fill="none" fill-rule="evenodd">
        <g>
            <g>
                <g>
                    <g transform="translate(-1279 -4192) translate(0 4130) translate(1237 30) translate(42 32.768)">
                        <path d="M0 0L16 0 16 14.98 0 14.98z"/>
                        <use fill="#FFF" xlink:href="#svuhf0ubba"/>
                    </g>
                </g>
            </g>
        </g>
    </g>
</svg>
