<?xml version="1.0" encoding="UTF-8"?>
<svg width="1729px" height="238px" viewBox="0 0 1729 238" version="1.1" xmlns="http://www.w3.org/2000/svg" xmlns:xlink="http://www.w3.org/1999/xlink">
    <title>Logo_Property-mate - White</title>
    <g id="Logo_Property-mate---White" stroke="none" stroke-width="1" fill="none" fill-rule="evenodd">
        <text id="Property-Mates" font-family="Poppins-Regular, Poppins" font-size="200" font-weight="normal" fill="#FFFFFF">
            <tspan x="227" y="177">Property Mates</tspan>
        </text>
        <path d="M179.85396,160.536092 C187.589007,168.271139 187.589007,180.812127 179.85396,188.547173 C172.118914,196.28222 159.577926,196.28222 151.842879,188.547173 C144.107832,180.812127 144.107832,168.271139 151.842879,160.536092 C159.577926,152.801046 172.118914,152.801046 179.85396,160.536092 Z M44.8123662,159.842879 C52.5474127,167.577926 52.5474127,180.118914 44.8123662,187.85396 C37.0773197,195.589007 24.5363314,195.589007 16.8012849,187.85396 C9.06623837,180.118914 9.06623837,167.577926 16.8012849,159.842879 C24.5363314,152.107832 37.0773197,152.107832 44.8123662,159.842879 Z M164.211639,117.972423 C169.833549,128.289388 170.600294,140.547904 166.512192,151.393706 C160.340321,150.72823 153.934332,152.761231 149.204154,157.491409 C144.473894,162.221669 142.440904,168.627798 143.105185,174.798581 C128.789325,180.195738 112.01137,177.132704 100.48923,165.610563 L90.3402875,155.461621 C80.7541592,145.875493 77.0232695,132.651386 79.1476184,120.233478 C79.843501,121.654574 80.7620387,122.993637 81.9034909,124.198267 L82.2526142,124.555571 L111.064669,153.15341 C111.868562,153.951326 112.75491,154.661624 113.708806,155.272359 C121.150728,160.037072 131.046162,157.866765 135.810877,150.424844 C148.073143,131.272624 157.540064,120.45515 164.211639,117.972423 Z M85.1149798,87.1476184 C83.6938847,87.843501 82.3548215,88.7620387 81.1501912,89.9034909 L80.7928876,90.2526142 L52.1950485,119.064669 C51.3971324,119.868562 50.6868339,120.75491 50.0760993,121.708806 C45.3113862,129.150728 47.4816931,139.046162 54.9236141,143.810877 C74.0758346,156.073143 84.8933082,165.540064 87.376035,172.211639 C77.0590708,177.833549 64.8005546,178.600294 53.9547523,174.512192 C54.6202284,168.340321 52.5872272,161.934332 47.8570489,157.204154 C43.1267891,152.473894 36.7206605,150.440904 30.5498777,151.105185 C25.1527199,136.789325 28.2157546,120.01137 39.7378949,108.48923 L49.8868374,98.3402875 C59.4729657,88.7541592 72.6970727,85.0232695 85.1149798,87.1476184 Z M143.393706,38.8362662 C142.72823,45.0081369 144.761231,51.4141261 149.491409,56.1443044 C154.221669,60.8745642 160.627798,62.9075539 166.798581,62.2432736 C172.195738,76.5591333 169.132704,93.337088 157.610563,104.859228 L147.461621,115.008171 C137.875493,124.594299 124.651386,128.325189 112.233478,126.20084 C113.654574,125.504957 114.993637,124.58642 116.198267,123.444967 L116.555571,123.095844 L145.15341,94.283789 C145.951326,93.479896 146.661624,92.593548 147.272359,91.6396522 C152.037072,84.1977299 149.866765,74.3022968 142.424844,69.5375817 C123.272624,57.2753152 112.45515,47.8083945 109.972423,41.1368197 C120.289388,35.5149097 132.547904,34.748164 143.393706,38.8362662 Z M96.8592284,47.7378949 L107.008171,57.8868374 C116.594299,67.4729657 120.325189,80.6970727 118.20084,93.1149798 C117.504957,91.6938847 116.58642,90.3548215 115.444967,89.1501912 L115.095844,88.7928876 L86.283789,60.1950485 C85.479896,59.3971324 84.593548,58.6868339 83.6396522,58.0760993 C76.1977299,53.3113862 66.3022968,55.4816931 61.5375817,62.9236141 C49.2753152,82.0758346 39.8083945,92.8933082 33.1368197,95.376035 C27.5149097,85.0590708 26.748164,72.8005546 30.8362662,61.9547523 C37.0081369,62.6202284 43.4141261,60.5872272 48.1443044,55.8570489 C52.8745642,51.1267891 54.9075539,44.7206605 54.2432736,38.5498777 C68.5591333,33.1527199 85.337088,36.2157546 96.8592284,47.7378949 Z M180.547173,25.494498 C188.28222,33.2295445 188.28222,45.7705328 180.547173,53.5055793 C172.812127,61.2406258 160.271139,61.2406258 152.536092,53.5055793 C144.801046,45.7705328 144.801046,33.2295445 152.536092,25.494498 C160.271139,17.7594515 172.812127,17.7594515 180.547173,25.494498 Z M45.5055793,24.8012849 C53.2406258,32.5363314 53.2406258,45.0773197 45.5055793,52.8123662 C37.7705328,60.5474127 25.2295445,60.5474127 17.494498,52.8123662 C9.75945151,45.0773197 9.75945151,32.5363314 17.494498,24.8012849 C25.2295445,17.0662384 37.7705328,17.0662384 45.5055793,24.8012849 Z" id="Combined-Shape" fill="#FFFFFF"></path>
    </g>
</svg>