<?xml version="1.0" encoding="utf-8"?>
<!-- Generator: Adobe Illustrator 25.1.0, SVG Export Plug-In . SVG Version: 6.00 Build 0)  -->
<svg version="1.1" id="Layer_1" xmlns="http://www.w3.org/2000/svg" xmlns:xlink="http://www.w3.org/1999/xlink" x="0px" y="0px"
	 viewBox="0 0 16 16" style="enable-background:new 0 0 16 16;" xml:space="preserve">
<style type="text/css">
	.st0{fill:#FE7400;}
</style>
<g>
	<g>
		<g>
			<g>
				<path class="st0" d="M9.8,12.7c1,0,1.8,0.8,1.8,1.8v1c0,0.3-0.2,0.5-0.5,0.5s-0.5-0.2-0.5-0.5v-1c0-0.5-0.4-0.8-0.8-0.8H6.2
					c-0.5,0-0.8,0.4-0.8,0.8v1c0,0.3-0.2,0.5-0.5,0.5s-0.5-0.2-0.5-0.5v-1c0-1,0.8-1.8,1.8-1.8H9.8z M14.2,12c1,0,1.8,0.8,1.8,1.8
					v0.3c0,0.3-0.2,0.5-0.5,0.5S15,14.4,15,14.2v-0.3c0-0.5-0.4-0.8-0.8-0.8h-1.7c-0.3,0-0.5-0.2-0.5-0.5s0.2-0.5,0.5-0.5H14.2z
					 M3.5,12C3.8,12,4,12.2,4,12.5S3.8,13,3.5,13H1.8C1.4,13,1,13.4,1,13.8v0.3c0,0.3-0.2,0.5-0.5,0.5S0,14.4,0,14.2v-0.3
					c0-1,0.8-1.8,1.8-1.8H3.5z M8,7.7c1.1,0,2,0.9,2,2c0,1.1-0.9,2-2,2s-2-0.9-2-2C6,8.6,6.9,7.7,8,7.7z M13.3,8.7
					c0.7,0,1.3,0.6,1.3,1.3s-0.6,1.3-1.3,1.3c-0.7,0-1.3-0.6-1.3-1.3S12.6,8.7,13.3,8.7z M2.7,8.7C3.4,8.7,4,9.3,4,10
					s-0.6,1.3-1.3,1.3c-0.7,0-1.3-0.6-1.3-1.3S1.9,8.7,2.7,8.7z M8,8.7c-0.6,0-1,0.4-1,1c0,0.6,0.4,1,1,1s1-0.4,1-1
					C9,9.1,8.6,8.7,8,8.7z M13.3,9.7C13.1,9.7,13,9.8,13,10s0.1,0.3,0.3,0.3c0.2,0,0.3-0.1,0.3-0.3S13.5,9.7,13.3,9.7z M2.7,9.7
					c-0.2,0-0.3,0.1-0.3,0.3s0.2,0.3,0.3,0.3S3,10.2,3,10S2.8,9.7,2.7,9.7z M14.8,0.7c0.6,0,1.2,0.5,1.2,1.2v3C16,5.5,15.5,6,14.8,6
					h-0.1l-1,1.2c-0.1,0.1-0.2,0.2-0.4,0.2h0c-0.2,0-0.3-0.1-0.4-0.2l-0.5-0.7c-0.2-0.2-0.1-0.5,0.1-0.7s0.5-0.1,0.7,0.1L13.4,6
					l0.8-0.9C14.2,5.1,14.4,5,14.5,5h0.3C14.9,5,15,4.9,15,4.8v-3c0-0.1-0.1-0.2-0.2-0.2h-1c-0.3,0-0.5-0.2-0.5-0.5s0.2-0.5,0.5-0.5
					C13.8,0.7,14.8,0.7,14.8,0.7z M2.2,0.7c0.3,0,0.5,0.2,0.5,0.5S2.4,1.7,2.2,1.7h-1C1.1,1.7,1,1.7,1,1.8v3C1,4.9,1.1,5,1.2,5h0.3
					c0.1,0,0.3,0.1,0.4,0.2L2.6,6l0.2-0.2C3,5.6,3.3,5.6,3.5,5.7c0.2,0.2,0.3,0.5,0.1,0.7L3.1,7.1C3,7.3,2.8,7.3,2.7,7.3h0
					c-0.1,0-0.3-0.1-0.4-0.2L1.3,6H1.2C0.5,6,0,5.5,0,4.8v-3c0-0.6,0.5-1.2,1.2-1.2C1.2,0.7,2.2,0.7,2.2,0.7z M10.8,0
					C11.5,0,12,0.5,12,1.2v3c0,0.6-0.5,1.2-1.2,1.2H9.4l-1,1.2C8.3,6.6,8.1,6.7,8,6.7h0c-0.2,0-0.3-0.1-0.4-0.2L6.8,5.3H5.2
					C4.5,5.3,4,4.8,4,4.2v-3C4,0.5,4.5,0,5.2,0H10.8z M10.8,1H5.2C5.1,1,5,1.1,5,1.2v3c0,0.1,0.1,0.2,0.2,0.2H7
					c0.2,0,0.3,0.1,0.4,0.2L8,5.4l0.8-0.9C8.9,4.4,9,4.3,9.2,4.3h1.7c0.1,0,0.2-0.1,0.2-0.2v-3C11,1.1,10.9,1,10.8,1z"/>
			</g>
		</g>
	</g>
</g>
</svg>
