<?xml version="1.0" encoding="utf-8"?>
<!-- Generator: Adobe Illustrator 25.1.0, SVG Export Plug-In . SVG Version: 6.00 Build 0)  -->
<svg version="1.1" id="Layer_1" xmlns="http://www.w3.org/2000/svg" xmlns:xlink="http://www.w3.org/1999/xlink" x="0px" y="0px"
	 viewBox="0 0 16 16" style="enable-background:new 0 0 16 16;" xml:space="preserve">
<style type="text/css">
	.st0{fill:#8F9296;}
</style>
<g>
	<g>
		<g>
			<path class="st0" d="M9.8,12.7c1,0,1.8,0.8,1.8,1.8v1c0,0.3-0.2,0.5-0.5,0.5s-0.5-0.2-0.5-0.5v-1c0-0.5-0.4-0.8-0.8-0.8H6.2
				c-0.5,0-0.8,0.4-0.8,0.8v1c0,0.3-0.2,0.5-0.5,0.5s-0.5-0.2-0.5-0.5v-1c0-1,0.8-1.8,1.8-1.8H9.8z M8,7.7c1.1,0,2,0.9,2,2
				c0,1.1-0.9,2-2,2s-2-0.9-2-2C6,8.6,6.9,7.7,8,7.7z M8,8.7c-0.6,0-1,0.4-1,1c0,0.6,0.4,1,1,1s1-0.4,1-1C9,9.1,8.6,8.7,8,8.7z
				 M14.8,0C15.5,0,16,0.5,16,1.2v3c0,0.6-0.5,1.2-1.2,1.2H9.4l-1,1.2C8.3,6.6,8.1,6.7,8,6.7h0c-0.2,0-0.3-0.1-0.4-0.2L6.8,5.3H1.2
				C0.5,5.3,0,4.8,0,4.2v-3C0,0.5,0.5,0,1.2,0H14.8z M14.8,1H1.2C1.1,1,1,1.1,1,1.2v3c0,0.1,0.1,0.2,0.2,0.2H7
				c0.2,0,0.3,0.1,0.4,0.2L8,5.4l0.8-0.9C8.9,4.4,9,4.3,9.2,4.3h5.7c0.1,0,0.2-0.1,0.2-0.2v-3C15,1.1,14.9,1,14.8,1z"/>
		</g>
	</g>
</g>
</svg>
