<svg xmlns="http://www.w3.org/2000/svg" width="16" height="16" viewBox="0 0 16 16">
    <g fill="none" fill-rule="evenodd">
        <g fill="#FE7400" fill-rule="nonzero">
            <g>
                <path d="M9.833 14.667c1.012 0 1.834.822 1.834 1.833v1c0 .276-.224.5-.5.5s-.5-.224-.5-.5v-1c0-.46-.374-.833-.834-.833H6.167c-.46 0-.834.374-.834.833v1c0 .276-.224.5-.5.5s-.5-.224-.5-.5v-1c0-1.011.822-1.833 1.834-1.833h3.666zM8 9.667c1.103 0 2 .897 2 2 0 1.102-.897 2-2 2s-2-.898-2-2c0-1.103.897-2 2-2zm0 1c-.551 0-1 .448-1 1 0 .551.449 1 1 1 .551 0 1-.449 1-1 0-.552-.449-1-1-1zM14.833 2C15.477 2 16 2.523 16 3.167v3c0 .643-.523 1.166-1.167 1.166h-5.44L8.376 8.496c-.095.109-.232.17-.376.17h-.019c-.15-.005-.29-.079-.381-.2l-.85-1.133H1.167C.523 7.333 0 6.81 0 6.167v-3C0 2.523.523 2 1.167 2h13.666zm0 1H1.167C1.075 3 1 3.075 1 3.167v3c0 .092.075.166.167.166H7c.157 0 .305.074.4.2l.63.84.76-.868c.095-.11.233-.172.377-.172h5.666c.092 0 .167-.074.167-.166v-3c0-.092-.075-.167-.167-.167z" transform="translate(-60 -178) translate(60 176)"/>
            </g>
        </g>
    </g>
</svg>
