<svg xmlns="http://www.w3.org/2000/svg" width="19" height="16" viewBox="0 0 19 16">
    <g fill="none" fill-rule="evenodd">
        <g fill="#8F9296" fill-rule="nonzero">
            <g>
                <g>
                    <g>
                        <g>
                            <path d="M18.2 3.036c.37 0 .671.3.671.67v5.237c0 .37-.3.671-.67.671h-1.797v3.52l.694.137c.608.121 1.14.495 1.46 1.026l.086.141c.151.252.232.54.232.835v1.394c0 .55-.448.997-.997.997h-.51c-.08.285-.232.554-.455.778-.337.337-.785.522-1.262.522-.476 0-.924-.185-1.261-.522-.224-.224-.375-.493-.455-.778h-8.93c-.08.285-.232.554-.455.778-.348.348-.805.521-1.262.521-.456 0-.913-.173-1.261-.521-.262-.262-.425-.585-.49-.924l-1.07-.476c-.285-.126-.468-.408-.468-.72V13.72c0-.587.417-1.1.99-1.22l.387-.08c.672-.142 1.285-.472 1.772-.958.77-.766 1.792-1.188 2.878-1.188H9.29c.817 0 1.606.241 2.283.698l1.779 1.202c.318.215.798.512 1.29.61l.358.071v-3.24h-2.038c-.37 0-.67-.3-.67-.67V7.44c0-.148.12-.269.268-.269.149 0 .27.12.27.27v1.502c0 .073.059.133.132.133H18.2c.074 0 .133-.06.133-.133V3.707c0-.074-.06-.133-.133-.133h-5.237c-.073 0-.133.06-.133.133v1.986c0 .149-.12.269-.269.269-.148 0-.269-.12-.269-.269V3.707c0-.37.301-.671.671-.671zM4.074 16.213c-.455-.37-1.112-.37-1.568-.002l-.004.003-.038.033-.01.009-.037.035-.012.012-.043.045-.015.018-.028.033-.017.022-.023.03-.018.026-.018.027-.019.03-.014.024-.02.034-.01.02-.02.04c0 .004-.002.007-.004.011-.21.46-.125 1.021.252 1.399.236.235.548.365.881.365.333 0 .646-.13.882-.365.424-.425.477-1.08.161-1.564l-.005-.007-.014-.02-.014-.021-.014-.018-.025-.032-.023-.028-.02-.023-.047-.05-.046-.043-.007-.007-.04-.035zm11.578-.279c-.333 0-.646.13-.88.365l-.048.05-.02.023-.023.028-.025.032-.013.018-.029.041-.005.007c-.316.483-.262 1.14.162 1.564.235.235.548.365.881.365.333 0 .646-.13.881-.365.424-.425.478-1.08.162-1.564l-.005-.007-.014-.02-.014-.021-.014-.018-.025-.032-.023-.028-.02-.023-.047-.05c-.235-.235-.548-.365-.88-.365zm-12.363.43c.218 0 .423.085.578.24.318.317.318.835 0 1.154-.155.154-.36.239-.578.239-.218 0-.423-.085-.577-.24-.154-.153-.239-.359-.239-.577 0-.218.085-.423.24-.577.153-.154.358-.239.576-.239zm12.363 0c.218 0 .423.085.577.24.155.153.24.358.24.576 0 .219-.085.424-.24.578-.154.154-.359.239-.577.239-.218 0-.423-.085-.577-.24-.318-.318-.318-.836 0-1.154.154-.154.36-.239.577-.239zm-12.363.538c-.074 0-.144.029-.197.081-.052.053-.081.123-.081.197 0 .075.029.145.081.197.053.053.123.082.197.082.075 0 .145-.029.197-.082.109-.108.109-.285 0-.394-.052-.052-.122-.081-.197-.081zm12.363 0c-.074 0-.144.029-.197.081-.108.11-.108.286 0 .394.053.053.123.082.197.082.075 0 .144-.029.197-.082.053-.052.082-.122.082-.197 0-.074-.03-.144-.082-.197-.053-.052-.122-.081-.197-.081zm-6.36-6.092H6.027c-.943 0-1.83.367-2.498 1.032-.561.56-1.267.94-2.042 1.103l-.386.08c-.326.069-.563.36-.563.694v2.604c0 .098.058.188.148.228l.838.372c.029-.2.092-.393.186-.571v-.003l.041-.073c.032-.052.063-.1.097-.146l.011-.016.039-.05.017-.02.039-.046.016-.018.058-.061c.348-.348.805-.522 1.261-.522.343 0 .686.098.982.294.099.065.193.141.28.228l.062.065.01.011.05.059.003.004c.248.305.386.678.397 1.069h8.795c.011-.39.149-.763.397-1.068l.004-.006.048-.055.012-.014.053-.056.009-.009c.252-.253.568-.42.91-.488.115-.023.232-.035.351-.035.15 0 .295.019.436.054.31.077.594.237.826.469l.009.01.052.055.013.014.047.055.005.006c.248.306.385.678.396 1.068h.442c.254 0 .46-.206.46-.46v-1.394c0-.197-.054-.39-.155-.557l-.085-.141c-.242-.402-.645-.685-1.105-.776l-2.454-.488c-.588-.117-1.13-.451-1.487-.693l-1.779-1.201c-.587-.397-1.273-.607-1.981-.607zm-1.33 3.854c.148 0 .269.12.269.269 0 .148-.12.269-.27.269h-.83c-.148 0-.269-.12-.269-.269 0-.149.12-.269.27-.269zm1.33-3.46c.65 0 1.28.193 1.82.558l1.779 1.202c.11.074.225.144.341.208.25.138.406.4.406.682 0 .221-.18.401-.4.401H5.864c-.148 0-.268-.12-.268-.269 0-.148.12-.269.268-.269h.894v-1.975h-.731c-.723 0-1.404.282-1.916.792-.355.353-.759.649-1.2.878-.055.028-.088.083-.088.144 0 .089.073.161.162.161h1.113c.148 0 .269.12.269.27 0 .148-.12.268-.269.268H2.985c-.386 0-.7-.314-.7-.7 0-.261.145-.5.377-.62.394-.204.753-.467 1.07-.782.613-.611 1.428-.948 2.295-.948zm0 .538H7.296v1.976h5.76c-.02-.03-.05-.056-.083-.075-.13-.072-.26-.15-.383-.234l-1.779-1.201c-.45-.305-.976-.466-1.52-.466zm6.574-2.128h-.328v3.347l.328.065V9.614zM6.49 7.935c.583-.583 1.53-.583 2.113 0 .105.105.105.275 0 .38-.052.053-.121.079-.19.079s-.137-.026-.19-.079c-.373-.373-.98-.373-1.353 0-.105.105-.275.105-.38 0-.105-.105-.105-.275 0-.38zm9.288-3.366c.582 0 1.04.28 1.04 1.032v.027c0 .752-.472 1.04-1.077 1.04h-.513v1.064c0 .124-.152.188-.298.188-.152 0-.298-.064-.298-.188v-2.98l.007-.047c.023-.075.103-.136.217-.136zM5.398 6.843c1.185-1.184 3.112-1.184 4.297 0 .105.105.105.276 0 .38-.052.053-.121.08-.19.08s-.138-.027-.19-.08c-.975-.974-2.562-.974-3.537 0-.105.106-.275.106-.38 0-.105-.104-.105-.275 0-.38zm10.343-1.751h-.513V6.2h.513c.298 0 .481-.17.481-.527v-.055c0-.358-.183-.527-.48-.527zm-8.194-.708c1.23 0 2.387.48 3.257 1.35.105.105.105.275 0 .38-.052.053-.121.079-.19.079s-.137-.026-.19-.079c-.769-.768-1.79-1.192-2.877-1.192-1.087 0-2.11.424-2.878 1.192-.105.105-.275.105-.38 0-.105-.105-.105-.275 0-.38.87-.87 2.027-1.35 3.258-1.35z" transform="translate(-166 -1528) translate(0 1012) translate(60 147) translate(10 366) translate(96)"/>
                        </g>
                    </g>
                </g>
            </g>
        </g>
    </g>
</svg>
