<svg xmlns="http://www.w3.org/2000/svg" width="40" height="40" viewBox="0 0 40 40">
    <g fill="none" fill-rule="evenodd">
        <g>
            <g>
                <path d="M0 0H40V40H0z" transform="translate(-751 -901) translate(751 901)"/>
                <path fill="#FE7400" fill-rule="nonzero" d="M20 3C8.954 3 0 12.16 0 23.458 0 28.382 1.701 32.9 4.534 36.43c.437-3.58 3.932-6.607 8.834-8.04 1.79 1.706 4.103 2.741 6.632 2.741 2.47 0 4.737-.983 6.51-2.618 4.943 1.559 8.363 4.763 8.475 8.488C38.103 33.392 40 28.653 40 23.458 40 12.16 31.046 3 20 3zm0 27.2c-1.53 0-2.971-.42-4.251-1.149-3.085-1.755-5.209-5.347-5.209-9.494 0-5.868 4.244-10.642 9.46-10.642 5.217 0 9.46 4.774 9.46 10.642 0 4.211-2.19 7.847-5.352 9.572-1.245.68-2.635 1.07-4.108 1.07z" transform="translate(-751 -901) translate(751 901)"/>
            </g>
        </g>
    </g>
</svg>
