<svg xmlns="http://www.w3.org/2000/svg" width="24" height="24" viewBox="0 0 24 24">
    <g fill="none" fill-rule="evenodd">
        <g fill="#FE7400" fill-rule="nonzero">
            <g>
                <g>
                    <path d="M32 10c3.205 0 6.219 1.248 8.485 3.515C42.752 15.78 44 18.795 44 22c0 2.369-.703 4.672-2.033 6.662-.288.43-.87.546-1.3.258-.431-.288-.547-.87-.259-1.3 1.123-1.68 1.717-3.624 1.717-5.62 0-5.583-4.542-10.125-10.125-10.125S21.875 16.417 21.875 22 26.417 32.125 32 32.125c1.852 0 3.663-.504 5.238-1.458.442-.268 1.019-.127 1.287.316.269.443.127 1.02-.316 1.288C36.341 33.402 34.194 34 32 34c-3.205 0-6.219-1.248-8.485-3.515C21.248 28.22 20 25.205 20 22c0-3.205 1.248-6.219 3.515-8.485C25.78 11.248 28.795 10 32 10zm-3.111 7.094c.661-.38 1.45-.38 2.11.004l5.29 3.07c.66.382 1.055 1.068 1.055 1.832s-.394 1.45-1.054 1.833L31 26.902c-.331.192-.695.288-1.059.288-.36 0-.722-.095-1.052-.284-.664-.383-1.06-1.07-1.06-1.836v-6.14c0-.767.396-1.453 1.06-1.836zm1.053 1.592c-.047 0-.087.016-.117.033-.055.032-.121.094-.121.212v6.138c0 .118.066.18.12.212.054.03.138.055.235 0l5.29-3.07c.099-.058.12-.147.12-.211s-.021-.153-.12-.21l-5.29-3.07c-.042-.025-.082-.034-.117-.034z" transform="translate(-80 -378) translate(60 120) translate(0 248)"/>
                </g>
            </g>
        </g>
    </g>
</svg>
