<svg xmlns="http://www.w3.org/2000/svg" width="40" height="40" viewBox="0 0 40 40">
    <g fill="none" fill-rule="evenodd">
        <g fill="#FE7400" fill-rule="nonzero">
            <path d="M380.625 940.994h-21.25c-5.17 0-9.375-4.205-9.375-9.375v-13.146c0-2.906 1.38-5.692 3.69-7.454l10.625-8.104c3.347-2.553 8.023-2.553 11.37 0l3.377 2.573v-1.994c.083-2.073 3.044-2.071 3.125 0v5.15c0 .593-.336 1.136-.869 1.4-.532.263-1.168.202-1.64-.158l-5.887-4.486c-2.232-1.702-5.35-1.702-7.581 0l-10.625 8.104c-1.54 1.174-2.46 3.032-2.46 4.969v13.146c0 3.446 2.804 6.25 6.25 6.25h21.25c3.446 0 6.25-2.804 6.25-6.25v-13.146c0-1.96-.91-3.825-2.432-4.986-.686-.524-.818-1.504-.295-2.19.524-.687 1.504-.819 2.19-.295 2.293 1.749 3.662 4.542 3.662 7.471v13.146c0 5.17-4.206 9.375-9.375 9.375zm-13.75-21.953c-1.079 0-1.953.875-1.953 1.953.103 2.592 3.804 2.59 3.906 0 0-1.079-.874-1.953-1.953-1.953zm8.203 1.953c-.103 2.592-3.804 2.59-3.906 0 .103-2.591 3.804-2.59 3.906 0zm-6.25 6.25c-.103 2.592-3.804 2.59-3.906 0 .103-2.591 3.804-2.59 3.906 0zm6.25 0c-.103 2.592-3.804 2.59-3.906 0 .103-2.591 3.804-2.59 3.906 0z" transform="translate(-350 -901)"/>
        </g>
    </g>
</svg>
