<svg xmlns="http://www.w3.org/2000/svg" width="44" height="44" viewBox="0 0 44 44">
    <g fill="none" fill-rule="evenodd">
        <g fill="#1B1B1B" fill-rule="nonzero">
            <path d="M742 71.191V61.98c0-1.114-.908-1.979-1.98-1.979h-11.045c-1.075 0-1.98.869-1.98 1.98v.781h-10.622C714.4 60.977 711.87 60 709.19 60h-9.212c-1.076 0-1.979.87-1.979 1.98v11.045c0 1.116.909 1.98 1.98 1.98h.781v10.623C698.977 87.6 698 90.13 698 92.808v9.213c0 1.114.908 1.979 1.98 1.979h11.045c.522 0 1.033-.212 1.399-.579.374-.373.58-.87.58-1.4v-.782h10.624c1.972 1.784 4.502 2.761 7.181 2.761h9.212c1.075 0 1.979-.869 1.979-1.98V90.976c0-1.115-.908-1.98-1.98-1.98h-.781V78.372C741.023 76.4 742 73.87 742 71.192zm-41.422 1.236v-9.849h8.613c2.168 0 4.207.842 5.742 2.371.235.24.562.39.925.39h11.137v5.707h-11.137c-.431 0-.834.215-1.073.574l-1.23 1.844c-.471.709-1.152 1.23-1.931 1.504v-1.252c0-.712-.577-1.29-1.29-1.29h-9.756zm11.138 17.95c-.712 0-1.29.576-1.29 1.288v9.757h-9.848v-8.613c0-2.174.847-4.218 2.384-5.755.242-.242.378-.57.378-.912V75.005h5.706v11.137c0 .431.215.834.574 1.073l1.844 1.23c.709.472 1.23 1.152 1.504 1.931h-1.252zm1.179-4.078l-1.271-.847v-7.816c1.652-.335 3.121-1.308 4.077-2.742l.847-1.27h7.816c.335 1.651 1.308 3.12 2.741 4.077l1.271.847v7.816c-1.652.335-3.121 1.308-4.077 2.741l-.847 1.271h-7.816c-.335-1.651-1.308-3.12-2.741-4.077zm26.527 5.274v9.849h-8.613c-2.174 0-4.218-.847-5.755-2.384-.242-.242-.57-.378-.912-.378h-11.137v-5.706h11.137c.431 0 .834-.215 1.073-.574l1.23-1.845c.471-.708 1.152-1.229 1.931-1.503v1.252c0 .712.577 1.29 1.29 1.29h9.756zm-2.384-14.627c-.242.242-.378.57-.378.912v11.137h-5.706V77.858c0-.431-.215-.834-.574-1.073l-1.845-1.23c-.708-.472-1.229-1.152-1.503-1.931h1.252c.712 0 1.29-.577 1.29-1.29v-9.756h9.848v8.613c0 2.174-.847 4.218-2.384 5.755z" transform="translate(-698 -60)"/>
        </g>
    </g>
</svg>
