<?xml version="1.0" encoding="UTF-8"?>
<svg width="456px" height="250px" viewBox="0 0 456 250" version="1.1" xmlns="http://www.w3.org/2000/svg" xmlns:xlink="http://www.w3.org/1999/xlink">
    <title>Show PWD</title>
    <g id="Page-1" stroke="none" stroke-width="1" fill="none" fill-rule="evenodd">
        <g id="Artboard" transform="translate(-22.000000, -123.000000)" fill="#262626">
            <path d="M250,123 C333.947282,123 409.947282,164.666667 478,248 C409.947282,331.333333 333.947282,373 250,373 C166.052718,373 90.052718,331.333333 22,248 C90.052718,164.666667 166.052718,123 250,123 Z M250,158 C200.294373,158 160,198.294373 160,248 C160,297.705627 200.294373,338 250,338 C299.705627,338 340,297.705627 340,248 C340,198.294373 299.705627,158 250,158 Z M250,200 C277.614237,200 300,222.385763 300,250 C300,277.614237 277.614237,300 250,300 C222.385763,300 200,277.614237 200,250 C200,222.385763 222.385763,200 250,200 Z" id="Show-PWD"></path>
        </g>
    </g>
</svg>