<?xml version="1.0" encoding="utf-8"?>
<!-- Generator: Adobe Illustrator 25.2.1, SVG Export Plug-In . SVG Version: 6.00 Build 0)  -->
<svg version="1.1" id="Layer_1" xmlns="http://www.w3.org/2000/svg" xmlns:xlink="http://www.w3.org/1999/xlink" x="0px" y="0px"
	 viewBox="0 0 30 30" style="enable-background:new 0 0 30 30;" xml:space="preserve">
<style type="text/css">
	.st0{fill:#0A7E80;}
</style>
<path class="st0" d="M28,18.1v6.4h0v2.2c0,0.8-0.7,1.5-1.5,1.5h-23c-0.8,0-1.5-0.7-1.5-1.5v-7.1l0-1.5l-1.9,0V27c0,1.7,1.3,3,3,3H27
	c1.7,0,3-1.3,3-3v-8.9H28z"/>
<path class="st0" d="M22.6,7.9L15.8,1c-0.4-0.4-1-0.4-1.4,0l-7,6.7l1.4,1.4l5.5-5.3v18.1h1.8V4.1l5.1,5.2L22.6,7.9z"/>
</svg>
