<svg xmlns="http://www.w3.org/2000/svg" width="16" height="16" viewBox="0 0 16 16">
    <g fill="none" fill-rule="evenodd">
        <g fill="#FFF" fill-rule="nonzero">
            <g>
                <path d="M13.78 4.462C12.27 2.886 10.18 1.996 7.998 2 3.586 1.995.006 5.566 0 9.978c-.003 2.181.887 4.269 2.462 5.778.004.004.006.011.01.015.047.045.097.083.144.125.129.115.257.233.392.343.073.057.148.114.223.167.128.095.256.19.39.279.09.057.184.114.277.171.123.074.246.15.373.217.108.057.219.106.328.158.12.057.239.115.361.166.123.051.247.091.371.136.125.044.232.086.351.122.135.04.273.072.41.106.115.028.226.06.343.083.158.031.318.051.478.073.099.014.195.033.295.043.262.025.526.04.792.04s.53-.015.792-.04c.1-.01.196-.03.295-.043.16-.022.32-.042.478-.073.114-.023.228-.057.342-.083.137-.034.276-.065.41-.106.12-.036.235-.08.352-.122.116-.041.249-.086.37-.136.122-.05.242-.11.362-.166.11-.052.22-.1.327-.158.128-.068.25-.143.374-.217.093-.057.187-.11.278-.171.133-.088.261-.184.39-.28.073-.056.149-.108.221-.166.136-.108.264-.224.393-.343.047-.042.097-.08.143-.125.005-.004.007-.01.011-.015 3.186-3.052 3.294-8.108.242-11.294zm-1.284 10.696c-.104.091-.211.178-.32.262-.064.05-.128.098-.193.144-.104.075-.209.146-.316.214-.077.05-.157.098-.237.145l-.306.171c-.091.047-.184.09-.278.134-.094.044-.197.09-.298.13-.101.041-.209.08-.314.115-.097.033-.194.067-.291.096-.114.035-.234.063-.352.091-.093.022-.184.046-.278.065-.135.026-.273.044-.412.063-.079.01-.157.025-.237.033-.219.02-.441.033-.666.033-.224 0-.446-.012-.666-.033-.08-.008-.157-.023-.236-.033-.14-.019-.277-.037-.413-.063-.093-.019-.185-.043-.277-.065-.119-.028-.236-.057-.352-.09-.098-.03-.194-.064-.291-.097-.106-.037-.211-.074-.314-.114-.103-.041-.2-.086-.298-.13-.099-.046-.187-.088-.279-.135-.103-.054-.205-.11-.306-.171-.08-.047-.16-.095-.237-.145-.107-.068-.212-.139-.315-.214-.066-.046-.13-.095-.194-.144-.108-.084-.216-.171-.32-.262-.025-.02-.048-.043-.072-.065.025-1.943 1.274-3.659 3.115-4.281.92.438 1.99.438 2.91 0 1.84.622 3.09 2.338 3.115 4.281-.024.022-.047.044-.072.065zM6.006 6.58c.618-1.1 2.011-1.49 3.111-.871 1.1.618 1.49 2.011.872 3.111-.205.365-.507.667-.872.872-.002 0-.006 0-.01.004-.15.084-.31.152-.477.202-.03.008-.057.02-.088.027-.058.015-.118.025-.176.036-.111.019-.223.03-.336.033h-.065c-.112-.003-.224-.014-.335-.033-.057-.01-.118-.021-.176-.036-.03-.007-.057-.019-.089-.027-.166-.05-.326-.118-.477-.202l-.01-.004c-1.1-.618-1.49-2.012-.872-3.112zm7.575 7.38c-.367-1.71-1.492-3.159-3.058-3.937 1.28-1.395 1.187-3.563-.207-4.843-1.395-1.28-3.563-1.187-4.843.207-1.204 1.311-1.204 3.325 0 4.636-1.566.778-2.692 2.228-3.059 3.937C.224 10.875.95 6.598 4.034 4.407c3.086-2.19 7.363-1.464 9.554 1.621.823 1.16 1.265 2.547 1.265 3.97 0 1.42-.445 2.807-1.272 3.962z" transform="translate(-1312 -32) translate(1312 30)"/>
            </g>
        </g>
    </g>
</svg>
